<?xml version="1.0" encoding="UTF-8"?>
<svg version="1.1" xmlns="http://www.w3.org/2000/svg" width="385" height="137">
<path d="M0 0 C0.66 0.33 1.32 0.66 2 1 C1.649375 2.0725 1.29875 3.145 0.9375 4.25 C-2.74286305 19.42483026 5.40936309 34.48219244 12.90429688 47.25146484 C15.80857825 51.88614916 19.32135424 55.97100702 23 60 C23.65871094 60.72832031 24.31742188 61.45664063 24.99609375 62.20703125 C34.3692154 72.0704973 48.07084356 81.81400298 62 83 C68.02824797 83.07032956 72.35274452 82.09401078 77 78 C81.82308648 70.0169603 81.90102243 62.23891646 79.875 53.3125 C77.98265106 46.22761872 75.04229863 39.6556436 72 33 C76.50486021 34.50162007 77.3082896 37.66745594 79.44140625 41.7421875 C85.21348881 53.80714202 89.88183456 67.11489917 86.31640625 80.58203125 C83.9255749 85.77043289 80.12689662 89.43655169 75 92 C56.7696474 93.53935426 43.7535329 86.95988012 29.90234375 75.46484375 C14.60013492 62.30273534 -1.03129197 42.26053602 -3.25 21.68115234 C-3.40622465 19.26211126 -3.4802213 16.86137982 -3.5 14.4375 C-3.50644531 13.68758789 -3.51289063 12.93767578 -3.51953125 12.16503906 C-3.40835258 7.41642717 -2.4757841 4.16800887 0 0 Z " fill="#F09243" transform="translate(24,29)"/>
<path d="M0 0 C6.48845051 3.88225622 12.18432369 8.89895568 17.34375 14.40234375 C17.01375 15.06234375 16.68375 15.72234375 16.34375 16.40234375 C15.67730469 15.87125 15.01085937 15.34015625 14.32421875 14.79296875 C4.28481313 7.09843129 -3.69961521 3.95427461 -16.39453125 3.96875 C-20.01055404 4.44944285 -22.50492788 5.60499361 -25.65625 7.40234375 C-24.50125 7.07234375 -23.34625 6.74234375 -22.15625 6.40234375 C-13.31541378 4.24642053 -5.25368349 5.35907894 2.7578125 9.71484375 C4.65869126 10.8970157 6.51596369 12.11064002 8.34375 13.40234375 C5.1129606 14.47927355 4.46419984 14.34247027 1.34375 13.46484375 C-7.15757798 11.44991861 -15.72010439 11.42625464 -23.65625 15.40234375 C-28.87259928 19.4595043 -32.12497938 24.60832022 -33.04296875 31.1640625 C-33.5665062 44.97461942 -27.65667272 54.80349314 -19.65625 65.40234375 C-19.98625 66.06234375 -20.31625 66.72234375 -20.65625 67.40234375 C-32.09412497 54.69359378 -40.05104539 40.20105471 -39.8125 22.66796875 C-39.32382433 15.58217152 -37.04897443 9.19385559 -32.40625 3.77734375 C-23.0601276 -4.29430742 -11.38791017 -5.33333793 0 0 Z " fill="#15498A" transform="translate(65.65625,17.59765625)"/>
<path d="M0 0 C1.32 0 2.64 0 4 0 C4 1.32 4 2.64 4 4 C7.73059699 4.95929637 10.26798075 4.84676067 14 4 C13.54636829 5.58468677 13.08688548 7.16769924 12.625 8.75 C12.24214844 10.07257813 12.24214844 10.07257813 11.8515625 11.421875 C11.0790066 13.76080572 10.16374324 15.83442562 9 18 C7.68 18 6.36 18 5 18 C5.185625 17.236875 5.37125 16.47375 5.5625 15.6875 C6.22819173 12.91032625 6.22819173 12.91032625 5 10 C4.67 11.32 4.34 12.64 4 14 C-2.625 15.25 -2.625 15.25 -6 13 C-8.42938689 13.35232207 -8.42938689 13.35232207 -11 14 C-12.6662553 14.0370279 -14.33401319 14.04759962 -16 14 C-16 12.68 -16 11.36 -16 10 C-16.33 11.32 -16.66 12.64 -17 14 C-19.3125 14.625 -19.3125 14.625 -22 15 C-22.99 14.34 -23.98 13.68 -25 13 C-25.556875 14.2375 -25.556875 14.2375 -26.125 15.5 C-27.053125 16.7375 -27.053125 16.7375 -28 18 C-31.1875 18.3125 -31.1875 18.3125 -34 18 C-34.33 16.35 -34.66 14.7 -35 13 C-36.65 13.33 -38.3 13.66 -40 14 C-40 10.7 -40 7.4 -40 4 C-39.195625 4.185625 -38.39125 4.37125 -37.5625 4.5625 C-36.716875 4.706875 -35.87125 4.85125 -35 5 C-34.67 4.67 -34.34 4.34 -34 4 C-31.32461486 3.95753357 -28.67290614 3.95080541 -26 4 C-25.34 4 -24.68 4 -24 4 C-16 4 -16 4 -13.90625 4.10546875 C-13.1121875 4.13253906 -12.318125 4.15960938 -11.5 4.1875 C-10.7059375 4.22230469 -9.911875 4.25710937 -9.09375 4.29296875 C-8.4028125 4.19628906 -7.711875 4.09960938 -7 4 C-6.34 3.01 -5.68 2.02 -5 1 C-2 2 -2 2 -1 4 C-0.67 2.68 -0.34 1.36 0 0 Z M-1 6 C-1.33 7.65 -1.66 9.3 -2 11 C-1.01 11.495 -1.01 11.495 0 12 C0 10.02 0 8.04 0 6 C-0.33 6 -0.66 6 -1 6 Z M-32 7 C-32 8.32 -32 9.64 -32 11 C-31.34 11 -30.68 11 -30 11 C-30 9.68 -30 8.36 -30 7 C-30.66 7 -31.32 7 -32 7 Z " fill="#E89650" transform="translate(179,103)"/>
<path d="M0 0 C0.66 0 1.32 0 2 0 C2.98248524 4.0527516 3.08159574 7.83861737 3 12 C3.66 11.67 4.32 11.34 5 11 C4.773125 9.741875 4.54625 8.48375 4.3125 7.1875 C3.8004174 3.27768014 3.8004174 3.27768014 5.4375 1 C5.953125 0.67 6.46875 0.34 7 0 C7.495 1.485 7.495 1.485 8 3 C8.99 3.33 9.98 3.66 11 4 C10.69240822 5.97993541 10.3787932 7.95893599 10.0625 9.9375 C9.88847656 11.03964844 9.71445313 12.14179687 9.53515625 13.27734375 C9 16 9 16 8 17 C5.68856033 17.07305435 3.37499731 17.08362942 1.0625 17.0625 C-0.20464844 17.05347656 -1.47179687 17.04445313 -2.77734375 17.03515625 C-3.84082031 17.02355469 -4.90429688 17.01195313 -6 17 C-6.66 17 -7.32 17 -8 17 C-10.33333333 17 -12.66666667 17 -15 17 C-15.268125 17.639375 -15.53625 18.27875 -15.8125 18.9375 C-17 21 -17 21 -20 22 C-21.5 20.625 -21.5 20.625 -23 19 C-23 18.34 -23 17.68 -23 17 C-27.24822374 17.47202486 -29.19989709 19.96655518 -32 23 C-38.875 20.25 -38.875 20.25 -40 18 C-39.071875 18.04125 -38.14375 18.0825 -37.1875 18.125 C-33.84190281 18.27136339 -33.84190281 18.27136339 -31 16 C-30.83333333 13 -30.83333333 13 -31 10 C-30.67 9.34 -30.34 8.68 -30 8 C-29.34 8 -28.68 8 -28 8 C-27.01 9.485 -27.01 9.485 -26 11 C-23.94074861 11.72382467 -23.94074861 11.72382467 -22 12 C-21.6596875 10.824375 -21.6596875 10.824375 -21.3125 9.625 C-19.66171907 6.32343815 -18.38223927 6.18378375 -15 5 C-14.34 4.01 -13.68 3.02 -13 2 C-10.6171875 1.48828125 -10.6171875 1.48828125 -7.875 1.3125 C-6.96492188 1.24675781 -6.05484375 1.18101563 -5.1171875 1.11328125 C-4.06917969 1.05720703 -4.06917969 1.05720703 -3 1 C-3.33 2.65 -3.66 4.3 -4 6 C-5.65 6.33 -7.3 6.66 -9 7 C-7.29374499 9.78388975 -6.52373261 10.85384206 -3.3125 11.75 C-2.549375 11.8325 -1.78625 11.915 -1 12 C-1.09539062 11.38511719 -1.19078125 10.77023438 -1.2890625 10.13671875 C-1.39992187 9.32847656 -1.51078125 8.52023438 -1.625 7.6875 C-1.74101562 6.88699219 -1.85703125 6.08648437 -1.9765625 5.26171875 C-2 3 -2 3 0 0 Z M-15 8 C-15.33 9.32 -15.66 10.64 -16 12 C-14.68 11.67 -13.36 11.34 -12 11 C-12.99 10.01 -13.98 9.02 -15 8 Z " fill="#194B89" transform="translate(185,41)"/>
<path d="M0 0 C2.475 1.485 2.475 1.485 5 3 C4.69249629 5.14655501 4.3788634 7.29223285 4.0625 9.4375 C3.88847656 10.63246094 3.71445312 11.82742187 3.53515625 13.05859375 C3 16 3 16 2 17 C0.15506886 17.07541104 -1.6927058 17.0831073 -3.5390625 17.0625 C-4.67730469 17.05476563 -5.81554687 17.04703125 -6.98828125 17.0390625 C-9.38932563 17.01327255 -11.79036738 16.98723584 -14.19140625 16.9609375 C-22.65549707 16.82761851 -22.65549707 16.82761851 -31 18 C-31.495 18.680625 -31.99 19.36125 -32.5 20.0625 C-32.995 20.701875 -33.49 21.34125 -34 22 C-39.95522388 22.52238806 -39.95522388 22.52238806 -43 21 C-43 20.01 -43 19.02 -43 18 C-41.35 18 -39.7 18 -38 18 C-37.89459074 15.78918149 -37.89459074 15.78918149 -39 13 C-37.5625 9.8125 -37.5625 9.8125 -36 7 C-34.35 7.33 -32.7 7.66 -31 8 C-30.67 8.99 -30.34 9.98 -30 11 C-29.62875 10.34 -29.2575 9.68 -28.875 9 C-27 7 -27 7 -23.9375 6.625 C-21 7 -21 7 -19 9 C-19 9.99 -19 10.98 -19 12 C-18.01 12 -17.02 12 -16 12 C-15.34 10.68 -14.68 9.36 -14 8 C-13.34 8 -12.68 8 -12 8 C-11.67 9.32 -11.34 10.64 -11 12 C-10.34 10.68 -9.68 9.36 -9 8 C-8.34 8.66 -7.68 9.32 -7 10 C-5.68 9.34 -4.36 8.68 -3 8 C-3 9.32 -3 10.64 -3 12 C-2.01 12 -1.02 12 0 12 C-0.350625 11.113125 -0.70125 10.22625 -1.0625 9.3125 C-2.02117134 5.92519461 -2.03850183 4.30432401 -1 1 C-0.67 0.67 -0.34 0.34 0 0 Z " fill="#1A4A85" transform="translate(279,41)"/>
<path d="M0 0 C0.66 0 1.32 0 2 0 C2 1.32 2 2.64 2 4 C5.3 3.67 8.6 3.34 12 3 C12 2.01 12 1.02 12 0 C13.32 0 14.64 0 16 0 C16 4.95 16 9.9 16 15 C14.68 15 13.36 15 12 15 C11.505 11.535 11.505 11.535 11 8 C10.34 8 9.68 8 9 8 C8.67 10.31 8.34 12.62 8 15 C1.375 16.25 1.375 16.25 -2 14 C-2.6875 10.875 -2.6875 10.875 -3 8 C-4.98 8 -6.96 8 -9 8 C-9 8.99 -9 9.98 -9 11 C-8.34 11.33 -7.68 11.66 -7 12 C-7 11.34 -7 10.68 -7 10 C-5.68 10.33 -4.36 10.66 -3 11 C-4.4488189 14.74278215 -4.4488189 14.74278215 -6.875 15.875 C-9.51982121 16.03057772 -10.80065516 15.44095007 -13 14 C-13.33 13.34 -13.66 12.68 -14 12 C-14.99 13.485 -14.99 13.485 -16 15 C-18.38601491 16.03393979 -19.65010584 16.07997581 -22.1875 15.5 C-24 14 -24 14 -24.875 10.5625 C-25 7 -25 7 -23 4 C-20.47296063 2.9049496 -19.4118074 2.84704296 -16.8125 3.8125 C-15 5 -15 5 -14 7 C-13.34 6.01 -12.68 5.02 -12 4 C-9.5625 3.1875 -9.5625 3.1875 -7 3 C-6.01 3.66 -5.02 4.32 -4 5 C-3.38125 4.175 -2.7625 3.35 -2.125 2.5 C-1.42375 1.675 -0.7225 0.85 0 0 Z M2 7 C2 8.65 2 10.3 2 12 C2.66 12 3.32 12 4 12 C4 10.35 4 8.7 4 7 C3.34 7 2.68 7 2 7 Z " fill="#194782" transform="translate(221,76)"/>
<path d="M0 0 C3 0.125 3 0.125 6 1 C7.375 3.0625 7.375 3.0625 8 5 C8.33 5 8.66 5 9 5 C9.33 4.67 9.66 4.34 10 4 C12.86267567 3.92674832 15.700719 3.90761795 18.5625 3.9375 C19.36880859 3.94201172 20.17511719 3.94652344 21.00585938 3.95117188 C23.00393756 3.96299482 25.00197783 3.98093086 27 4 C27.33 4.66 27.66 5.32 28 6 C28.33 5.34 28.66 4.68 29 4 C31.64 4 34.28 4 37 4 C37 7.3 37 10.6 37 14 C35.68 14 34.36 14 33 14 C32.505 11.525 32.505 11.525 32 9 C31.34 10.65 30.68 12.3 30 14 C28.68 14 27.36 14 26 14 C25.34 11.69 24.68 9.38 24 7 C23.01 7 22.02 7 21 7 C21 9.31 21 11.62 21 14 C15.61308017 14.86847945 12.08979998 15.24549999 7 13 C6.01 13.66 5.02 14.32 4 15 C0.67759676 14.6758631 -0.60776303 14.39223697 -3 12 C-3 11.01 -3 10.02 -3 9 C-2.34 8.67 -1.68 8.34 -1 8 C-1.66 7.34 -2.32 6.68 -3 6 C-2.63318342 3.06546739 -2.13562754 2.13562754 0 0 Z M1 4 C1.33 4.66 1.66 5.32 2 6 C2.99 5.67 3.98 5.34 5 5 C3.68 4.67 2.36 4.34 1 4 Z M17 6 C18 9 18 9 18 9 Z M0 9 C0.33 9.66 0.66 10.32 1 11 C1.99 10.67 2.98 10.34 4 10 C2.68 9.67 1.36 9.34 0 9 Z M12 10 C12 10.33 12 10.66 12 11 C13.65 11 15.3 11 17 11 C17 10.67 17 10.34 17 10 C15.35 10 13.7 10 12 10 Z " fill="#EB9A51" transform="translate(200,103)"/>
<path d="M0 0 C6.49125168 -0.36742934 6.49125168 -0.36742934 8.6875 1.21875 C10.32402204 3.43974419 10.48940514 4.95379098 10.6875 7.6875 C10.78611328 8.89986328 10.78611328 8.89986328 10.88671875 10.13671875 C10.92410156 10.75160156 10.96148437 11.36648437 11 12 C12.32 11.67 13.64 11.34 15 11 C14.34 10.34 13.68 9.68 13 9 C12.75 6.5 12.75 6.5 13 4 C15.42130331 1.57869669 16.80111377 1.47159496 20.125 0.875 C21.49011719 0.62363281 21.49011719 0.62363281 22.8828125 0.3671875 C23.58148438 0.24601562 24.28015625 0.12484375 25 0 C24.66015625 2.41796875 24.66015625 2.41796875 24 5 C21.4375 6.3125 21.4375 6.3125 19 7 C19.845625 7.721875 20.69125 8.44375 21.5625 9.1875 C22.366875 10.115625 23.17125 11.04375 24 12 C23.65234375 14.67578125 23.65234375 14.67578125 23 17 C20.70839681 17.02692484 18.41670454 17.04636124 16.125 17.0625 C14.84882813 17.07410156 13.57265625 17.08570312 12.2578125 17.09765625 C9 17 9 17 7 16 C5.00039988 15.960008 2.99952758 15.95653201 1 16 C0.1875 14.3125 0.1875 14.3125 0 12 C2.4375 9.375 2.4375 9.375 5 7 C5 6.34 5 5.68 5 5 C2.03 4.505 2.03 4.505 -1 4 C-0.67 2.68 -0.34 1.36 0 0 Z " fill="#1E4981" transform="translate(299,41)"/>
<path d="M0 0 C2.475 1.98 2.475 1.98 5 4 C4.69240822 5.97993541 4.3787932 7.95893599 4.0625 9.9375 C3.88847656 11.03964844 3.71445312 12.14179687 3.53515625 13.27734375 C3 16 3 16 2 17 C0.27813195 17.09695372 -1.447301 17.13201648 -3.171875 17.140625 C-4.22890625 17.15996094 -5.2859375 17.17929687 -6.375 17.19921875 C-8.60919647 17.23283513 -10.84367718 17.25128366 -13.078125 17.25390625 C-19.78379286 17.20204261 -19.78379286 17.20204261 -25.265625 20.546875 C-26.12414062 21.76117188 -26.12414062 21.76117188 -27 23 C-33.875 20.25 -33.875 20.25 -35 18 C-34.071875 18.04125 -33.14375 18.0825 -32.1875 18.125 C-28.84190281 18.27136339 -28.84190281 18.27136339 -26 16 C-25.83333333 13 -25.83333333 13 -26 10 C-25.67 9.34 -25.34 8.68 -25 8 C-24.34 8 -23.68 8 -23 8 C-22.01 9.485 -22.01 9.485 -21 11 C-18.43717258 11.72965366 -18.43717258 11.72965366 -16 12 C-15.34 10.68 -14.68 9.36 -14 8 C-13.34 8 -12.68 8 -12 8 C-11.67 9.32 -11.34 10.64 -11 12 C-10.67 10.68 -10.34 9.36 -10 8 C-9.34 8 -8.68 8 -8 8 C-7.67 8.66 -7.34 9.32 -7 10 C-5.68 9.34 -4.36 8.68 -3 8 C-3 9.32 -3 10.64 -3 12 C-2.01 12 -1.02 12 0 12 C-0.25136719 11.07767578 -0.25136719 11.07767578 -0.5078125 10.13671875 C-0.71148437 9.32847656 -0.91515625 8.52023438 -1.125 7.6875 C-1.33382812 6.88699219 -1.54265625 6.08648437 -1.7578125 5.26171875 C-2 3 -2 3 0 0 Z " fill="#284E7E" transform="translate(356,41)"/>
<path d="M0 0 C0.66 0.66 1.32 1.32 2 2 C1.814375 2.639375 1.62875 3.27875 1.4375 3.9375 C1.293125 4.618125 1.14875 5.29875 1 6 C2.35444301 7.77190909 2.35444301 7.77190909 4 9 C4.33 7.35 4.66 5.7 5 4 C7.51089376 3.10325223 8.64535109 2.86827326 11.1875 3.8125 C13 5 13 5 14 7 C14.13415472 9.6723621 14.04318541 12.32250488 14 15 C10.7 15 7.4 15 4 15 C3.67 14.34 3.34 13.68 3 13 C2.29875 13.515625 1.5975 14.03125 0.875 14.5625 C-2 16 -2 16 -5.1875 16 C-8 15 -8 15 -9.375 12.4375 C-9.58125 11.633125 -9.7875 10.82875 -10 10 C-9.34 9.34 -8.68 8.68 -8 8 C-8.33 7.67 -8.66 7.34 -9 7 C-9.04080783 5.00041636 -9.04254356 2.99954746 -9 1 C-5.98675805 -0.50662097 -3.31713623 -0.17770373 0 0 Z M-5 3 C-5 3.66 -5 4.32 -5 5 C-4.01 4.67 -3.02 4.34 -2 4 C-2.99 3.67 -3.98 3.34 -5 3 Z M-6 9 C-5.67 9.99 -5.34 10.98 -5 12 C-3.68 11.67 -2.36 11.34 -1 11 C-1.66 10.34 -2.32 9.68 -3 9 C-3.99 9 -4.98 9 -6 9 Z " fill="#1A4B85" transform="translate(128,76)"/>
<path d="M0 0 C2.1875 1.6875 2.1875 1.6875 3.1875 3.6875 C3.5175 2.3675 3.8475 1.0475 4.1875 -0.3125 C7.06407748 -1.19145423 8.65127442 -1.51539616 11.5 -0.4375 C14.17668649 2.93314224 13.50047219 6.54061847 13.1875 10.6875 C6.80754662 11.93847125 6.80754662 11.93847125 3.5625 10.625 C1.16090839 9.4108236 1.16090839 9.4108236 -1.5625 10.375 C-4.13046469 11.54120305 -4.13046469 11.54120305 -4.8125 14.6875 C-6.1325 14.6875 -7.4525 14.6875 -8.8125 14.6875 C-8.8125 9.7375 -8.8125 4.7875 -8.8125 -0.3125 C-2.8125 -1.3125 -2.8125 -1.3125 0 0 Z M-4.8125 2.6875 C-4.8125 4.3375 -4.8125 5.9875 -4.8125 7.6875 C-3.8225 7.6875 -2.8325 7.6875 -1.8125 7.6875 C-1.8125 6.0375 -1.8125 4.3875 -1.8125 2.6875 C-2.8025 2.6875 -3.7925 2.6875 -4.8125 2.6875 Z " fill="#194685" transform="translate(330.8125,80.3125)"/>
<path d="M0 0 C6.49125168 -0.36742934 6.49125168 -0.36742934 8.6875 1.21875 C10.32402204 3.43974419 10.48940514 4.95379098 10.6875 7.6875 C10.78611328 8.89986328 10.78611328 8.89986328 10.88671875 10.13671875 C10.92410156 10.75160156 10.96148437 11.36648437 11 12 C13.64 12 16.28 12 19 12 C18.67 10.68 18.34 9.36 18 8 C19.32 7.34 20.64 6.68 22 6 C23.98362069 8.91708924 23.9876191 10.12380904 23.625 13.75 C23.315625 15.35875 23.315625 15.35875 23 17 C20.68756208 17.02685412 18.3750373 17.04632841 16.0625 17.0625 C14.77472656 17.07410156 13.48695313 17.08570312 12.16015625 17.09765625 C9 17 9 17 8 16 C5.66702567 15.95907063 3.33294775 15.95758277 1 16 C0.1875 14.3125 0.1875 14.3125 0 12 C2.4375 9.375 2.4375 9.375 5 7 C5 6.34 5 5.68 5 5 C3.35 4.67 1.7 4.34 0 4 C0 2.68 0 1.36 0 0 Z " fill="#184A89" transform="translate(203,41)"/>
<path d="M0 0 C0.66 0.33 1.32 0.66 2 1 C1.649375 2.0725 1.29875 3.145 0.9375 4.25 C-2.71700551 19.31821473 5.26142268 33.12439258 12.328125 45.8828125 C14 49 14 49 15 52 C14 52 13 52 12 52 C11.67 52.66 11.34 53.32 11 54 C2.97835632 41.83815313 -3.15436668 29.92425631 -3.25 15.125 C-3.270625 14.33480469 -3.29125 13.54460938 -3.3125 12.73046875 C-3.34591065 7.71051904 -2.6876524 4.39926261 0 0 Z " fill="#D99154" transform="translate(24,29)"/>
<path d="M0 0 C8.7483817 3.16727695 15.85214537 9.68317381 22.13671875 16.38671875 C21.80671875 17.04671875 21.47671875 17.70671875 21.13671875 18.38671875 C20.47027344 17.855625 19.80382812 17.32453125 19.1171875 16.77734375 C8.06866923 8.30938849 -0.88611036 5.33411699 -14.86328125 6.38671875 C-16.5365695 6.68503958 -18.20697799 7.0052107 -19.86328125 7.38671875 C-19.53328125 6.72671875 -19.20328125 6.06671875 -18.86328125 5.38671875 C-18.20328125 5.38671875 -17.54328125 5.38671875 -16.86328125 5.38671875 C-16.86328125 4.06671875 -16.86328125 2.74671875 -16.86328125 1.38671875 C-17.85328125 1.05671875 -18.84328125 0.72671875 -19.86328125 0.38671875 C-14.55480513 -2.26751931 -5.68646532 -1.21797415 0 0 Z " fill="#1B4883" transform="translate(60.86328125,15.61328125)"/>
<path d="M0 0 C6.33333333 0 12.66666667 0 19 0 C19.05389087 1.95803507 19.09274217 3.91648909 19.125 5.875 C19.14820313 6.96554688 19.17140625 8.05609375 19.1953125 9.1796875 C19 12 19 12 17 14 C13.875 14.125 13.875 14.125 11 14 C10.67 12.35 10.34 10.7 10 9 C8.35 9.33 6.7 9.66 5 10 C5 7.69 5 5.38 5 3 C4.34 3 3.68 3 3 3 C3 5.31 3 7.62 3 10 C2.01 10 1.02 10 0 10 C0 6.7 0 3.4 0 0 Z M13 3 C13 4.32 13 5.64 13 7 C13.66 7 14.32 7 15 7 C15 5.68 15 4.36 15 3 C14.34 3 13.68 3 13 3 Z " fill="#E79753" transform="translate(238,107)"/>
<path d="M0 0 C0.66 0 1.32 0 2 0 C2 1.32 2 2.64 2 4 C3.65 4 5.3 4 7 4 C7.66 5.32 8.32 6.64 9 8 C9.66 6.68 10.32 5.36 11 4 C12.32 4 13.64 4 15 4 C11.76746725 15.80676856 11.76746725 15.80676856 9 19 C6.3125 19.3125 6.3125 19.3125 4 19 C4 18.01 4 17.02 4 16 C4.99 16 5.98 16 7 16 C6.5504955 14.68445015 6.09010284 13.37261642 5.625 12.0625 C5.36976563 11.33160156 5.11453125 10.60070312 4.8515625 9.84765625 C4.14728587 7.81317884 4.14728587 7.81317884 2 7 C2 8.65 2 10.3 2 12 C2.66 12 3.32 12 4 12 C4 12.99 4 13.98 4 15 C3.01 15.33 2.02 15.66 1 16 C-2 14 -2 14 -2.6171875 11.7578125 C-2.70226562 10.88898438 -2.78734375 10.02015625 -2.875 9.125 C-2.97554687 8.26132813 -3.07609375 7.39765625 -3.1796875 6.5078125 C-2.95990622 3.44043026 -2.12300596 2.1839535 0 0 Z " fill="#1A4780" transform="translate(257,76)"/>
<path d="M0 0 C6.39534884 0.69767442 6.39534884 0.69767442 9 2 C9 2.66 9 3.32 9 4 C10.65 4 12.3 4 14 4 C14 7.3 14 10.6 14 14 C13.21625 13.814375 12.4325 13.62875 11.625 13.4375 C9.02910225 12.74037734 9.02910225 12.74037734 7 14 C4.3276379 14.13415472 1.67749512 14.04318541 -1 14 C-2.35401611 11.29196778 -1.91421523 9.43517683 -1.625 6.4375 C-1.53476563 5.44621094 -1.44453125 4.45492187 -1.3515625 3.43359375 C-1 1 -1 1 0 0 Z M3 4 C3 6.31 3 8.62 3 11 C3.99 10.67 4.98 10.34 6 10 C6 8.35 6 6.7 6 5 C5.01 4.67 4.02 4.34 3 4 Z M10 6 C11 9 11 9 11 9 Z " fill="#EE9F48" transform="translate(119,103)"/>
<path d="M0 0 C2.18703385 -0.37907282 2.18703385 -0.37907282 4 -1 C5.90401138 0.90401138 6.93520439 2.33425686 7.19921875 5.046875 C7.1886578 7.03233273 7.09915043 9.0169914 7 11 C5.68 11 4.36 11 3 11 C3 8.36 3 5.72 3 3 C2.01 3.495 2.01 3.495 1 4 C0.59270772 6.32156597 0.25561323 8.6568787 0 11 C-1.32 11 -2.64 11 -4 11 C-4 8.36 -4 5.72 -4 3 C-4.66 3 -5.32 3 -6 3 C-6 5.64 -6 8.28 -6 11 C-7.32 11 -8.64 11 -10 11 C-10 7.37 -10 3.74 -10 0 C-6.23004716 -0.77112672 -3.68436623 -0.98249766 0 0 Z " fill="#184685" transform="translate(314,80)"/>
<path d="M0 0 C3.96 0 7.92 0 12 0 C11.67 1.32 11.34 2.64 11 4 C10.030625 3.979375 9.06125 3.95875 8.0625 3.9375 C5.12534105 3.64381501 5.12534105 3.64381501 4 5 C6.31 5 8.62 5 11 5 C11 6.32 11 7.64 11 9 C8.69 9 6.38 9 4 9 C4 9.99 4 10.98 4 12 C6.64 12 9.28 12 12 12 C12 12.99 12 13.98 12 15 C8.04 15 4.08 15 0 15 C0 10.05 0 5.1 0 0 Z " fill="#1C477B" transform="translate(178,76)"/>
<path d="M0 0 C4.50486021 1.50162007 5.3082896 4.66745594 7.44140625 8.7421875 C13.16559167 20.70702619 18.21749577 34.37158979 14.17578125 47.72265625 C11.79291717 52.60354142 11.79291717 52.60354142 9 54 C9.57584432 51.61435923 10.22227595 49.33317216 11 47 C11.66 47 12.32 47 13 47 C13.13794954 39.93391809 12.74805717 33.02639415 12 26 C11.95101562 26.85464844 11.90203125 27.70929688 11.8515625 28.58984375 C11.77679688 29.69457031 11.70203125 30.79929687 11.625 31.9375 C11.55539063 33.03964844 11.48578125 34.14179687 11.4140625 35.27734375 C11.27742188 36.17582031 11.14078125 37.07429688 11 38 C10.01 38.495 10.01 38.495 9 39 C9.03480469 38.20078125 9.06960937 37.4015625 9.10546875 36.578125 C9.44145132 22.94683201 5.57438476 12.19509417 0 0 Z " fill="#E39451" transform="translate(96,62)"/>
<path d="M0 0 C0.66 0.33 1.32 0.66 2 1 C2.4140625 3.28515625 2.4140625 3.28515625 2.625 6.0625 C2.69976562 6.98160156 2.77453125 7.90070312 2.8515625 8.84765625 C2.90054688 9.55792969 2.94953125 10.26820312 3 11 C4.65 11 6.3 11 8 11 C8.33 9.35 8.66 7.7 9 6 C9.99 6 10.98 6 12 6 C14.25867295 10.51734589 13.91870854 11.48774875 13 17 C8.38 17 3.76 17 -1 17 C-2.25 3.375 -2.25 3.375 0 0 Z " fill="#224C80" transform="translate(134,41)"/>
<path d="M0 0 C1.32 0 2.64 0 4 0 C4 4.95 4 9.9 4 15 C-3 16 -3 16 -6 15 C-7.87288519 12.471605 -8.00100723 11.05036171 -7.9375 7.875 C-7 5 -7 5 -4.5625 3.5625 C-2 3 -2 3 0 4 C0 2.68 0 1.36 0 0 Z M-3 7 C-3.33 7.99 -3.66 8.98 -4 10 C-3.67 10.66 -3.34 11.32 -3 12 C-2.01 11.67 -1.02 11.34 0 11 C-0.33 9.68 -0.66 8.36 -1 7 C-1.66 7 -2.32 7 -3 7 Z " fill="#1B477E" transform="translate(162,76)"/>
<path d="M0 0 C4.06698572 0.23463379 6.32562042 0.37886091 9.375 3.1875 C11.14811973 6.25636108 11.8428866 8.46494842 12 12 C11.34 12.66 10.68 13.32 10 14 C7.6875 14 7.6875 14 5 13 C1.60780694 9.60780694 -0.72802102 6.89562168 -1 2 C-0.67 1.34 -0.34 0.68 0 0 Z " fill="#ED9446" transform="translate(83,49)"/>
<path d="M0 0 C1.9375 1.375 1.9375 1.375 3 3 C3 3.66 3 4.32 3 5 C1.68 5.33 0.36 5.66 -1 6 C-1.33 5.34 -1.66 4.68 -2 4 C-3.32 4 -4.64 4 -6 4 C-5.67 6.31 -5.34 8.62 -5 11 C-4.01 11 -3.02 11 -2 11 C-1.67 10.34 -1.34 9.68 -1 9 C0.32 9.33 1.64 9.66 3 10 C2.625 11.9375 2.625 11.9375 2 14 C-1.04983996 15.52491998 -3.6423369 15.23562548 -7 15 C-9.18719174 13.41114347 -9.90399136 12.51957616 -10.3984375 9.84375 C-10.39070313 9.0703125 -10.38296875 8.296875 -10.375 7.5 C-10.38273437 6.7265625 -10.39046875 5.953125 -10.3984375 5.15625 C-9.3305481 -0.62291619 -5.10780837 -0.54726518 0 0 Z " fill="#194781" transform="translate(288,76)"/>
<path d="M0 0 C0.66 0 1.32 0 2 0 C2.66 0.99 3.32 1.98 4 3 C6.56282742 3.72965366 6.56282742 3.72965366 9 4 C9 4.33 9 4.66 9 5 C7.35 5 5.7 5 4 5 C4 5.99 4 6.98 4 8 C11.26 8 18.52 8 26 8 C26 8.33 26 8.66 26 9 C25.3294458 9.00410889 24.6588916 9.00821777 23.96801758 9.01245117 C20.91529609 9.04544643 17.8645547 9.1160962 14.8125 9.1875 C13.22985352 9.19620117 13.22985352 9.19620117 11.61523438 9.20507812 C5.08109206 9.22536775 5.08109206 9.22536775 -0.23828125 12.55078125 C-0.81964844 13.35902344 -1.40101563 14.16726562 -2 15 C-8.875 12.25 -8.875 12.25 -10 10 C-8.6078125 10.061875 -8.6078125 10.061875 -7.1875 10.125 C-3.84190281 10.27136339 -3.84190281 10.27136339 -1 8 C-0.83333333 5 -0.83333333 5 -1 2 C-0.67 1.34 -0.34 0.68 0 0 Z " fill="#18457E" transform="translate(331,49)"/>
<path d="M0 0 C0.33 0 0.66 0 1 0 C1 6.93 1 13.86 1 21 C1.66 21 2.32 21 3 21 C3 22.98 3 24.96 3 27 C3.99 26.67 4.98 26.34 6 26 C6.18433594 26.71542969 6.36867188 27.43085937 6.55859375 28.16796875 C9.15703505 37.09505818 13.4743013 43.67962993 19 51 C18.67 51.66 18.34 52.32 18 53 C5.92932765 39.58814183 -1.86954752 24.46116272 -1 6 C-0.71818839 3.9920923 -0.40743184 1.9862302 0 0 Z " fill="#345478" transform="translate(27,32)"/>
<path d="M0 0 C1.32 0 2.64 0 4 0 C4.66 0.99 5.32 1.98 6 3 C6.33 2.01 6.66 1.02 7 0 C8.32 0 9.64 0 11 0 C10.43174347 5.54050113 8.37113483 10.03715966 6 15 C4.35 15 2.7 15 1 15 C1 12 1 12 3 10 C2.01 6.7 1.02 3.4 0 0 Z " fill="#1E4C86" transform="translate(356,80)"/>
<path d="M0 0 C2.25 1.25 2.25 1.25 3.25 2.25 C3.625 5.625 3.625 5.625 3.25 9.25 C1.0625 11.3125 1.0625 11.3125 -1.75 12.25 C-4.18028072 11.58719617 -5.9510972 11.0489028 -7.75 9.25 C-8.125 5.875 -8.125 5.875 -7.75 2.25 C-4.94435046 -0.39532671 -3.76163638 -1.02590083 0 0 Z M-3.75 3.25 C-3.75 4.9 -3.75 6.55 -3.75 8.25 C-2.76 8.25 -1.77 8.25 -0.75 8.25 C-0.75 6.6 -0.75 4.95 -0.75 3.25 C-1.74 3.25 -2.73 3.25 -3.75 3.25 Z " fill="#1B4680" transform="translate(299.75,79.75)"/>
<path d="M0 0 C1.60725635 3.21451269 1.05748185 6.43612536 1 10 C-0.32 10 -1.64 10 -3 10 C-3.12375 8.865625 -3.2475 7.73125 -3.375 6.5625 C-3.58125 5.386875 -3.7875 4.21125 -4 3 C-4.66 2.67 -5.32 2.34 -6 2 C-6 4.64 -6 7.28 -6 10 C-7.32 10 -8.64 10 -10 10 C-10 6.37 -10 2.74 -10 -1 C-5.96934293 -1.91605842 -3.484385 -2.45197463 0 0 Z " fill="#1B477F" transform="translate(355,81)"/>
<path d="M0 0 C1.32 0 2.64 0 4 0 C4 2.64 4 5.28 4 8 C4.66 8 5.32 8 6 8 C6 5.69 6 3.38 6 1 C7.32 0.67 8.64 0.34 10 0 C10 3.63 10 7.26 10 11 C3.06640625 11.09765625 3.06640625 11.09765625 1 11 C0 10 0 10 -0.09765625 7.71484375 C-0.08605469 6.79832031 -0.07445312 5.88179688 -0.0625 4.9375 C-0.05347656 4.01839844 -0.04445312 3.09929687 -0.03515625 2.15234375 C-0.02355469 1.44207031 -0.01195312 0.73179688 0 0 Z " fill="#1C497E" transform="translate(143,80)"/>
<path d="M0 0 C2.64 0 5.28 0 8 0 C8 3.3 8 6.6 8 10 C6.68 10 5.36 10 4 10 C3.67 8.35 3.34 6.7 3 5 C2.34 6.65 1.68 8.3 1 10 C-0.32 10 -1.64 10 -3 10 C-3.66 8.02 -4.32 6.04 -5 4 C-4.01 4 -3.02 4 -2 4 C-1.34 2.68 -0.68 1.36 0 0 Z " fill="#E29C5D" transform="translate(229,107)"/>
<path d="M0 0 C0.99 0.33 1.98 0.66 3 1 C2.67 1.66 2.34 2.32 2 3 C1.34 2.67 0.68 2.34 0 2 C0.185625 2.7425 0.37125 3.485 0.5625 4.25 C0.99203108 6.94990963 0.85122974 8.44631077 0 11 C0.66 11 1.32 11 2 11 C2 9.35 2 7.7 2 6 C2.2475 6.61875 2.495 7.2375 2.75 7.875 C4.20628639 10.35068687 5.37812506 10.95125002 8 12 C8 10.02 8 8.04 8 6 C8.33 6 8.66 6 9 6 C9 8.31 9 10.62 9 13 C2.375 14.25 2.375 14.25 -1 12 C-3.64632287 12.3121764 -3.64632287 12.3121764 -6 13 C-6 10.69 -6 8.38 -6 6 C-5.34 5.67 -4.68 5.34 -4 5 C-6.41645782 4.83312552 -6.41645782 4.83312552 -9 5 C-9.66 5.66 -10.32 6.32 -11 7 C-11 5.68 -11 4.36 -11 3 C-10.06027344 3.05220703 -10.06027344 3.05220703 -9.1015625 3.10546875 C-8.28429687 3.13253906 -7.46703125 3.15960938 -6.625 3.1875 C-5.40683594 3.23970703 -5.40683594 3.23970703 -4.1640625 3.29296875 C-3.44992188 3.19628906 -2.73578125 3.09960938 -2 3 C-1.34 2.01 -0.68 1.02 0 0 Z " fill="#E49653" transform="translate(174,104)"/>
<path d="M0 0 C1.1446875 0.3403125 1.1446875 0.3403125 2.3125 0.6875 C2.3125 1.6775 2.3125 2.6675 2.3125 3.6875 C2.9725 4.0175 3.6325 4.3475 4.3125 4.6875 C4.12890625 6.578125 4.12890625 6.578125 3.3125 8.6875 C1.02734375 9.734375 1.02734375 9.734375 -1.75 10.4375 C-3.12865234 10.80101562 -3.12865234 10.80101562 -4.53515625 11.171875 C-5.24542969 11.34203125 -5.95570312 11.5121875 -6.6875 11.6875 C-6.6875 4.1875 -6.6875 4.1875 -4.4375 0.8125 C-2.6875 -0.3125 -2.6875 -0.3125 0 0 Z " fill="#235186" transform="translate(124.6875,49.3125)"/>
<path d="M0 0 C2.97 0 5.94 0 9 0 C9 3.3 9 6.6 9 10 C6.1875 10.625 6.1875 10.625 3 11 C2.01 10.34 1.02 9.68 0 9 C-0.41137202 5.96133201 -0.13193156 3.07840297 0 0 Z " fill="#EF9848" transform="translate(282,107)"/>
<path d="M0 0 C1.99954746 -0.04254356 4.00041636 -0.04080783 6 0 C7 1 7 1 7.0625 3.5625 C7.041875 4.366875 7.02125 5.17125 7 6 C7.65226562 5.98839844 8.30453125 5.97679687 8.9765625 5.96484375 C13.7761914 5.91529006 18.27784685 6.00586249 23 7 C23 7.33 23 7.66 23 8 C14.09 8 5.18 8 -4 8 C-3 6 -3 6 0 4 C0 2.68 0 1.36 0 0 Z " fill="#154B92" transform="translate(253,49)"/>
<path d="M0 0 C2.375 1.25 2.375 1.25 3.375 4.25 C1.065 3.92 -1.245 3.59 -3.625 3.25 C-3.625 4.9 -3.625 6.55 -3.625 8.25 C-2.635 8.25 -1.645 8.25 -0.625 8.25 C-0.625 7.59 -0.625 6.93 -0.625 6.25 C0.695 6.58 2.015 6.91 3.375 7.25 C1.9261811 10.99278215 1.9261811 10.99278215 -0.5 12.125 C-3.31315747 12.29047985 -4.43485106 12.06253705 -6.625 10.25 C-7.5 6.8125 -7.5 6.8125 -7.625 3.25 C-5.2504486 -0.3118271 -4.18566392 -1.19590398 0 0 Z " fill="#184581" transform="translate(245.625,79.75)"/>
<path d="M0 0 C0.66 0 1.32 0 2 0 C2.66 0.99 3.32 1.98 4 3 C6.05003955 4.19232613 6.05003955 4.19232613 8 5 C6.35 5.66 4.7 6.32 3 7 C4.32 7.66 5.64 8.32 7 9 C6.443125 9.061875 5.88625 9.12375 5.3125 9.1875 C2.05012827 10.33373872 0.31332126 12.49390197 -2 15 C-8.875 12.25 -8.875 12.25 -10 10 C-8.6078125 10.061875 -8.6078125 10.061875 -7.1875 10.125 C-3.84190281 10.27136339 -3.84190281 10.27136339 -1 8 C-0.83333333 5 -0.83333333 5 -1 2 C-0.67 1.34 -0.34 0.68 0 0 Z " fill="#1B4882" transform="translate(155,49)"/>
<path d="M0 0 C4.875 1.75 4.875 1.75 6 4 C6.13415472 6.6723621 6.04318541 9.32250488 6 12 C2.7 12 -0.6 12 -4 12 C-3.67 10.35 -3.34 8.7 -3 7 C-1.68 6.67 -0.36 6.34 1 6 C0.34 5.67 -0.32 5.34 -1 5 C-0.67 3.35 -0.34 1.7 0 0 Z " fill="#21497E" transform="translate(231,46)"/>
<path d="M0 0 C2.33294775 -0.04241723 4.66702567 -0.04092937 7 0 C8 1 8 1 8.09765625 2.84765625 C8.04882812 5.92382812 8.04882812 5.92382812 8 9 C3.66666667 11.16666667 3.66666667 11.16666667 0.75 10.4375 C-1 9 -1 9 -1.875 6.625 C-2.01261321 3.73512258 -1.52194825 2.41721193 0 0 Z M3 3 C3 4.32 3 5.64 3 7 C3.66 6.67 4.32 6.34 5 6 C4.67 5.01 4.34 4.02 4 3 C3.67 3 3.34 3 3 3 Z " fill="#E39856" transform="translate(273,107)"/>
<path d="M0 0 C3.875 1.75 3.875 1.75 5 4 C5.99 2.68 6.98 1.36 8 0 C8.99 0.33 9.98 0.66 11 1 C10.71125 1.845625 10.4225 2.69125 10.125 3.5625 C8.99227296 7.02361041 7.98175684 10.49372557 7 14 C5.68 14 4.36 14 3 14 C2.71125 12.783125 2.4225 11.56625 2.125 10.3125 C1.32164208 7.08185352 0.33734591 4.05679065 -1 1 C-0.67 0.67 -0.34 0.34 0 0 Z " fill="#E79E50" transform="translate(262,103)"/>
<path d="M0 0 C3.375 -0.125 3.375 -0.125 7 0 C9.57662281 2.57662281 9.34115688 3.92083461 9.5625 7.5 C9.73519346 11.39598635 9.73519346 11.39598635 11 15 C8.36 14.67 5.72 14.34 3 14 C3.33 12.35 3.66 10.7 4 9 C4.66 9 5.32 9 6 9 C5.67 7.68 5.34 6.36 5 5 C2.03 4.505 2.03 4.505 -1 4 C-0.67 2.68 -0.34 1.36 0 0 Z " fill="#154D93" transform="translate(299,41)"/>
<path d="M0 0 C0.66 0 1.32 0 2 0 C2 0.66 2 1.32 2 2 C2.65226562 1.91621094 3.30453125 1.83242188 3.9765625 1.74609375 C8.88249144 1.17445896 13.13127185 0.84688018 18 2 C17.67 3.32 17.34 4.64 17 6 C9.74 5.67 2.48 5.34 -5 5 C-5 4.01 -5 3.02 -5 2 C-3.35 2 -1.7 2 0 2 C0 1.34 0 0.68 0 0 Z " fill="#154B90" transform="translate(340,52)"/>
<path d="M0 0 C2.18703385 -0.37907282 2.18703385 -0.37907282 4 -1 C5.90401138 0.90401138 6.93520439 2.33425686 7.19921875 5.046875 C7.1886578 7.03233273 7.09915043 9.0169914 7 11 C5.68 11 4.36 11 3 11 C3 8.36 3 5.72 3 3 C1.35 3.33 -0.3 3.66 -2 4 C-2.33 3.34 -2.66 2.68 -3 2 C-6.02934491 1.34227572 -6.02934491 1.34227572 -9 1 C-9.33 1.99 -9.66 2.98 -10 4 C-10 2.68 -10 1.36 -10 0 C-6.23004716 -0.77112672 -3.68436623 -0.98249766 0 0 Z " fill="#184376" transform="translate(314,80)"/>
<path d="M0 0 C0.66 0 1.32 0 2 0 C2.33 3.63 2.66 7.26 3 11 C2.67 10.34 2.34 9.68 2 9 C1.34 9 0.68 9 0 9 C0 10.65 0 12.3 0 14 C-1.65 14 -3.3 14 -5 14 C-5 14.66 -5 15.32 -5 16 C-0.71 16 3.58 16 8 16 C8 16.33 8 16.66 8 17 C3.38 17 -1.24 17 -6 17 C-6.33 16.01 -6.66 15.02 -7 14 C-6.67 13.34 -6.34 12.68 -6 12 C-4.35 12 -2.7 12 -1 12 C-1.09539062 11.38511719 -1.19078125 10.77023438 -1.2890625 10.13671875 C-1.39992187 9.32847656 -1.51078125 8.52023438 -1.625 7.6875 C-1.74101562 6.88699219 -1.85703125 6.08648437 -1.9765625 5.26171875 C-2 3 -2 3 0 0 Z " fill="#1C4780" transform="translate(185,41)"/>
<path d="M0 0 C9.99072743 -0.55504041 17.87076144 2.25503532 26 8 C22.79810566 9.06729811 22.10637562 8.9586964 19 8.125 C13.70580968 6.83415953 8.42538387 6.38535437 3 6 C3 5.67 3 5.34 3 5 C7.455 4.505 7.455 4.505 12 4 C12 3.67 12 3.34 12 3 C6.06 2.01 6.06 2.01 0 1 C0 0.67 0 0.34 0 0 Z " fill="#1B4276" transform="translate(48,23)"/>
<path d="M0 0 C1.32 0.33 2.64 0.66 4 1 C3.01 1.33 2.02 1.66 1 2 C-0.22520264 5.00847418 -0.22520264 5.00847418 -1 8 C0.98 8.66 2.96 9.32 5 10 C3.9375 12.5 3.9375 12.5 2 15 C-1.42744229 15.3607834 -3.88122044 15.55938978 -7 14 C-7 13.01 -7 12.02 -7 11 C-5.35 11 -3.7 11 -2 11 C-1.89459074 8.78918149 -1.89459074 8.78918149 -3 6 C-1.5625 2.8125 -1.5625 2.8125 0 0 Z " fill="#1D4684" transform="translate(243,48)"/>
<path d="M0 0 C0.66 0.33 1.32 0.66 2 1 C1.67 2.051875 1.34 3.10375 1 4.1875 C-0.2489747 9.08732381 -0.11264811 13.82402877 0.02734375 18.8515625 C-0.00007888 22.00908261 -0.40044769 24.90463692 -1 28 C-3.70879518 24.00695532 -3.33122523 19.7613666 -3.3125 15.125 C-3.32861328 14.33480469 -3.34472656 13.54460938 -3.36132812 12.73046875 C-3.36549343 7.72376901 -2.67221421 4.38553361 0 0 Z " fill="#E59C59" transform="translate(24,29)"/>
<path d="M0 0 C1.32 0 2.64 0 4 0 C4 4.62 4 9.24 4 14 C1.36 14 -1.28 14 -4 14 C-2.68 13.34 -1.36 12.68 0 12 C0 10.35 0 8.7 0 7 C-1.32 6.34 -2.64 5.68 -4 5 C-2.68 4.67 -1.36 4.34 0 4 C0 2.68 0 1.36 0 0 Z " fill="#194B8E" transform="translate(162,76)"/>
<path d="M0 0 C3.89406452 1.29802151 4.19405992 2.67559288 6.0625 6.25 C6.56910156 7.20390625 7.07570313 8.1578125 7.59765625 9.140625 C11.36869283 16.82975807 11.36869283 16.82975807 10.625 21.8125 C10.45871094 22.99779297 10.45871094 22.99779297 10.2890625 24.20703125 C10.19367188 24.79871094 10.09828125 25.39039062 10 26 C9.67 26 9.34 26 9 26 C8.85304688 25.29617187 8.70609375 24.59234375 8.5546875 23.8671875 C6.62903228 15.38987772 3.6014976 7.87900446 0 0 Z " fill="#DE9A58" transform="translate(96,62)"/>
<path d="M0 0 C1.32 0 2.64 0 4 0 C4 4.95 4 9.9 4 15 C2.68 15 1.36 15 0 15 C0 10.05 0 5.1 0 0 Z " fill="#294670" transform="translate(191,76)"/>
<path d="M0 0 C1.32 0 2.64 0 4 0 C4 4.95 4 9.9 4 15 C2.68 15 1.36 15 0 15 C0 10.05 0 5.1 0 0 Z " fill="#20497E" transform="translate(167,76)"/>
<path d="M0 0 C1.32 0 2.64 0 4 0 C4 4.62 4 9.24 4 14 C2.68 14 1.36 14 0 14 C0 9.38 0 4.76 0 0 Z " fill="#F19444" transform="translate(134,103)"/>
<path d="M0 0 C1.96935692 2.95403539 3.21714268 5.72295053 4.5625 9 C5.21412109 10.5778125 5.21412109 10.5778125 5.87890625 12.1875 C6.64259544 14.10337532 7.34778842 16.04336526 8 18 C7.01 17.67 6.02 17.34 5 17 C4.67 16.01 4.34 15.02 4 14 C3.34 13.67 2.68 13.34 2 13 C1.67 13.66 1.34 14.32 1 15 C-1.35033491 10.44622611 -1.4457809 6.01762683 -1 1 C-0.67 0.67 -0.34 0.34 0 0 Z " fill="#DF8A4D" transform="translate(24,50)"/>
<path d="M0 0 C0.66 0 1.32 0 2 0 C2.22304441 1.74818591 2.4278645 3.49870323 2.625 5.25 C2.74101562 6.22453125 2.85703125 7.1990625 2.9765625 8.203125 C3.00112537 11.13429393 2.5312717 12.54528964 1 15 C0.34 15 -0.32 15 -1 15 C-1.91147322 10.03753471 -1.99130954 5.95654768 -1 1 C-0.67 0.67 -0.34 0.34 0 0 Z " fill="#1E487E" transform="translate(288,43)"/>
<path d="M0 0 C6.06025967 3.75158932 11.17004139 7.75072023 16 13 C15.67 13.66 15.34 14.32 15 15 C14.28714844 14.45730469 13.57429688 13.91460937 12.83984375 13.35546875 C7.71860119 9.53004531 3.03924039 6.14728547 -3 4 C-2.01 3.34 -1.02 2.68 0 2 C0 1.34 0 0.68 0 0 Z " fill="#1E3F6A" transform="translate(67,19)"/>
<path d="M0 0 C1.32 0 2.64 0 4 0 C3.67 4.95 3.34 9.9 3 15 C2.01 15 1.02 15 0 15 C-1.33257403 4.44191344 -1.33257403 4.44191344 0 0 Z " fill="#1C447C" transform="translate(250,76)"/>
<path d="M0 0 C0.66 0.33 1.32 0.66 2 1 C2.31241455 3.71446979 2.51336592 6.33909361 2.625 9.0625 C2.66367188 9.82111328 2.70234375 10.57972656 2.7421875 11.36132812 C2.83673562 13.24047195 2.91946756 15.12020336 3 17 C0.69 17.66 -1.62 18.32 -4 19 C-3.625 16.5625 -3.625 16.5625 -3 14 C-2.34 13.67 -1.68 13.34 -1 13 C-0.53045739 9.95418731 -0.53045739 9.95418731 -0.375 6.4375 C-0.30023438 5.23996094 -0.22546875 4.04242188 -0.1484375 2.80859375 C-0.09945312 1.88175781 -0.05046875 0.95492187 0 0 Z " fill="#F4963F" transform="translate(107,87)"/>
<path d="M0 0 C0.66 0 1.32 0 2 0 C2 4.62 2 9.24 2 14 C1.01 14.33 0.02 14.66 -1 15 C-1.22211116 13.06403108 -1.42722992 11.12610672 -1.625 9.1875 C-1.74101562 8.10855469 -1.85703125 7.02960937 -1.9765625 5.91796875 C-2 3 -2 3 0 0 Z " fill="#204779" transform="translate(365,43)"/>
<path d="M0 0 C1.32 0.33 2.64 0.66 4 1 C4 1.66 4 2.32 4 3 C4.99 3.33 5.98 3.66 7 4 C6.67 4.99 6.34 5.98 6 7 C3.36 7 0.72 7 -2 7 C-2 3 -2 3 0 0 Z " fill="#224A82" transform="translate(344,41)"/>
<path d="M0 0 C6.41868512 -0.3633218 6.41868512 -0.3633218 9 1.25 C10 3 10 3 9.6875 5.1875 C9.3471875 6.0846875 9.3471875 6.0846875 9 7 C8.01 7 7.02 7 6 7 C5.67 6.34 5.34 5.68 5 5 C2.47266765 4.34444881 2.47266765 4.34444881 0 4 C0 2.68 0 1.36 0 0 Z " fill="#1F4883" transform="translate(203,41)"/>
<path d="M0 0 C4.95 0 9.9 0 15 0 C15 0.99 15 1.98 15 3 C10.38 3.33 5.76 3.66 1 4 C1 3.34 1 2.68 1 2 C0.67 1.34 0.34 0.68 0 0 Z " fill="#124C91" transform="translate(45,25)"/>
<path d="M0 0 C0.66 0 1.32 0 2 0 C1.67 2.97 1.34 5.94 1 9 C-2.33333333 8.33333333 -5.66666667 7.66666667 -9 7 C-7.50011061 4.00022122 -4.94840874 3.44411857 -2 2 C-1.34 1.34 -0.68 0.68 0 0 Z " fill="#185397" transform="translate(166,50)"/>
<path d="M0 0 C0.99 0 1.98 0 3 0 C3.33 0.66 3.66 1.32 4 2 C6.32156597 2.40729228 8.6568787 2.74438677 11 3 C10.67 3.99 10.34 4.98 10 6 C4.69320843 7.20608899 4.69320843 7.20608899 1.6875 6.3125 C0 5 0 5 -0.8125 2.9375 C-0.874375 2.298125 -0.93625 1.65875 -1 1 C-0.67 0.67 -0.34 0.34 0 0 Z " fill="#224C7E" transform="translate(119,85)"/>
<path d="M0 0 C1.65 0 3.3 0 5 0 C5 3.3 5 6.6 5 10 C3.68 10 2.36 10 1 10 C0.67 6.7 0.34 3.4 0 0 Z " fill="#DF9A5F" transform="translate(232,107)"/>
<path d="M0 0 C2.39763185 2.39763185 2.34280586 3.33273498 2.625 6.625 C2.69976563 7.44226562 2.77453125 8.25953125 2.8515625 9.1015625 C2.90054687 9.72804688 2.94953125 10.35453125 3 11 C3.66 8.36 4.32 5.72 5 3 C6.18224668 6.54674003 5.89329634 8.97522995 5.5625 12.6875 C5.46066406 13.86699219 5.35882813 15.04648437 5.25390625 16.26171875 C5.17011719 17.16535156 5.08632813 18.06898437 5 19 C4.34 19 3.68 19 3 19 C3 17.02 3 15.04 3 13 C2.34 13 1.68 13 1 13 C0.67 8.71 0.34 4.42 0 0 Z " fill="#1D4D85" transform="translate(27,40)"/>
<path d="M0 0 C1.32 0.33 2.64 0.66 4 1 C3.67 4.96 3.34 8.92 3 13 C2.01 13 1.02 13 0 13 C0 8.71 0 4.42 0 0 Z " fill="#F5A03D" transform="translate(119,103)"/>
<path d="M0 0 C-0.33 1.65 -0.66 3.3 -1 5 C-3.31 5.33 -5.62 5.66 -8 6 C-8.66 4.68 -9.32 3.36 -10 2 C-3.375 0 -3.375 0 0 0 Z " fill="#194679" transform="translate(324,41)"/>
<path d="M0 0 C1.65 0.99 3.3 1.98 5 3 C4.34 7.29 3.68 11.58 3 16 C2.67 16 2.34 16 2 16 C1.67 12.37 1.34 8.74 1 5 C0.01 5.33 -0.98 5.66 -2 6 C-1.125 1.125 -1.125 1.125 0 0 Z " fill="#254C7D" transform="translate(279,41)"/>
<path d="M0 0 C0.66 0 1.32 0 2 0 C2 1.32 2 2.64 2 4 C3.32 4 4.64 4 6 4 C6.33 2.68 6.66 1.36 7 0 C7 1.98 7 3.96 7 6 C6.360625 6.28875 5.72125 6.5775 5.0625 6.875 C2.84793921 7.82823451 2.84793921 7.82823451 2 10 C1.34 10 0.68 10 0 10 C0 6.7 0 3.4 0 0 Z " fill="#14498E" transform="translate(323,84)"/>
<path d="M0 0 C0.33 0 0.66 0 1 0 C1 3.96 1 7.92 1 12 C1.99 12 2.98 12 4 12 C4 11.34 4 10.68 4 10 C4.66 9.67 5.32 9.34 6 9 C6.65555119 6.47266765 6.65555119 6.47266765 7 4 C7.33 4 7.66 4 8 4 C8 6.97 8 9.94 8 13 C5.36 13 2.72 13 0 13 C-1.36421031 10.27157939 -0.87807211 8.39046682 -0.5625 5.375 C-0.40974609 3.87066406 -0.40974609 3.87066406 -0.25390625 2.3359375 C-0.17011719 1.56507812 -0.08632812 0.79421875 0 0 Z " fill="#E29F63" transform="translate(118,104)"/>
<path d="M0 0 C1.32 0 2.64 0 4 0 C4 4.95 4 9.9 4 15 C2.68 15 1.36 15 0 15 C0 12.69 0 10.38 0 8 C0.33 8 0.66 8 1 8 C1 9.98 1 11.96 1 14 C1.66 14 2.32 14 3 14 C2.88590407 12.54077307 2.75834456 11.08259402 2.625 9.625 C2.55539063 8.81289062 2.48578125 8.00078125 2.4140625 7.1640625 C2.17107412 4.79665809 2.17107412 4.79665809 0 3 C0 2.01 0 1.02 0 0 Z " fill="#234672" transform="translate(233,76)"/>
<path d="M0 0 C2.97 0 5.94 0 9 0 C9 0.66 9 1.32 9 2 C8.195625 2.12375 7.39125 2.2475 6.5625 2.375 C5.2940625 2.684375 5.2940625 2.684375 4 3 C3.67 3.66 3.34 4.32 3 5 C2.34 5 1.68 5 1 5 C1.33 6.32 1.66 7.64 2 9 C1.34 9 0.68 9 0 9 C0 6.03 0 3.06 0 0 Z " fill="#15468F" transform="translate(179,77)"/>
<path d="M0 0 C0.33 0 0.66 0 1 0 C1 1.65 1 3.3 1 5 C1.66 5 2.32 5 3 5 C3 3.35 3 1.7 3 0 C3.2475 0.61875 3.495 1.2375 3.75 1.875 C5.20628639 4.35068687 6.37812506 4.95125002 9 6 C9 4.02 9 2.04 9 0 C9.33 0 9.66 0 10 0 C10 2.31 10 4.62 10 7 C3.375 8.25 3.375 8.25 0 6 C-0.1875 2.875 -0.1875 2.875 0 0 Z " fill="#DB9A5B" transform="translate(173,110)"/>
<path d="M0 0 C0.33 0 0.66 0 1 0 C1.75064488 16.01375752 1.75064488 16.01375752 -3 23 C-3.66 23.33 -4.32 23.66 -5 24 C-4.42415568 21.61435923 -3.77772405 19.33317216 -3 17 C-2.34 17 -1.68 17 -1 17 C-0.67 11.39 -0.34 5.78 0 0 Z " fill="#DB975D" transform="translate(110,92)"/>
<path d="M0 0 C0.99 0.99 1.98 1.98 3 3 C0.54908957 5.68433048 -1.28241384 6.91789741 -5.04296875 7.09765625 C-5.75066406 7.08605469 -6.45835938 7.07445313 -7.1875 7.0625 C-9.0746875 7.0315625 -9.0746875 7.0315625 -11 7 C-10.46375 6.7525 -9.9275 6.505 -9.375 6.25 C-6.10155465 4.52713402 -2.63127385 2.63127385 0 0 Z " fill="#EB944C" transform="translate(102,106)"/>
<path d="M0 0 C0.66 0.33 1.32 0.66 2 1 C2 2.65 2 4.3 2 6 C-1.3 6 -4.6 6 -8 6 C-8 5.34 -8 4.68 -8 4 C-6.35 4 -4.7 4 -3 4 C-2.67 3.01 -2.34 2.02 -2 1 C-1.34 0.67 -0.68 0.34 0 0 Z " fill="#144D93" transform="translate(319,51)"/>
<path d="M0 0 C0.66 0.33 1.32 0.66 2 1 C2 1.66 2 2.32 2 3 C2.99 3.33 3.98 3.66 5 4 C4.34 7.96 3.68 11.92 3 16 C2.67 16 2.34 16 2 16 C1.97301811 14.37509046 1.95361243 12.75005367 1.9375 11.125 C1.92589844 10.22007813 1.91429687 9.31515625 1.90234375 8.3828125 C2 6 2 6 3 4 C2.34 4 1.68 4 1 4 C0.67 5.98 0.34 7.96 0 10 C-1.58538318 7.48203847 -2.0373656 6.32134414 -1.6875 3.3125 C-1 1 -1 1 0 0 Z " fill="#1D4578" transform="translate(191,41)"/>
<path d="M0 0 C2.875 -0.1875 2.875 -0.1875 6 0 C6.66 0.99 7.32 1.98 8 3 C7.67 3.66 7.34 4.32 7 5 C4.69 5 2.38 5 0 5 C-0.33 4.01 -0.66 3.02 -1 2 C-0.67 1.34 -0.34 0.68 0 0 Z " fill="#1B487E" transform="translate(217,59)"/>
<path d="M0 0 C2.31 0 4.62 0 7 0 C7 2.62113708 6.68707555 4.50935112 6 7 C5.67 6.34 5.34 5.68 5 5 C1.97065509 4.34227572 1.97065509 4.34227572 -1 4 C-0.67 2.68 -0.34 1.36 0 0 Z " fill="#1D4377" transform="translate(299,41)"/>
<path d="M0 0 C1.33332095 2.6666419 0.67102033 4.16680303 0 7 C-2.31 7.33 -4.62 7.66 -7 8 C-6.875 5.6875 -6.875 5.6875 -6 3 C-2.9375 1.1875 -2.9375 1.1875 0 0 Z " fill="#F49342" transform="translate(251,108)"/>
<path d="M0 0 C0.33 2.64 0.66 5.28 1 8 C0.01 8.495 0.01 8.495 -1 9 C-1.99 8.34 -2.98 7.68 -4 7 C-4.1875 3.875 -4.1875 3.875 -4 1 C-2 0 -2 0 0 0 Z " fill="#1B4981" transform="translate(223,83)"/>
<path d="M0 0 C0 0.99 0 1.98 0 3 C0.99 3 1.98 3 3 3 C3 3.66 3 4.32 3 5 C0.36 5 -2.28 5 -5 5 C-5.33 3.68 -5.66 2.36 -6 1 C-3 0 -3 0 0 0 Z " fill="#164D95" transform="translate(211,51)"/>
<path d="M0 0 C0.99 0 1.98 0 3 0 C3 0.99 3 1.98 3 3 C2.01 3.495 2.01 3.495 1 4 C1.33 4.66 1.66 5.32 2 6 C2.33 6.99 2.66 7.98 3 9 C1.35 8.67 -0.3 8.34 -2 8 C-2 6.02 -2 4.04 -2 2 C-1.34 2 -0.68 2 0 2 C0 1.34 0 0.68 0 0 Z " fill="#F69A3F" transform="translate(275,107)"/>
<path d="M0 0 C2.97 0.495 2.97 0.495 6 1 C6 2.98 6 4.96 6 7 C2.48283697 7 1.62878252 6.17554415 -1 4 C-0.67 2.68 -0.34 1.36 0 0 Z " fill="#234E8D" transform="translate(133,80)"/>
<path d="M0 0 C3 1 3 1 4.6875 3.875 C6 7 6 7 6 10 C5.34 10 4.68 10 4 10 C4 9.34 4 8.68 4 8 C3.01 7.67 2.02 7.34 1 7 C0.67 4.69 0.34 2.38 0 0 Z " fill="#ED9A4A" transform="translate(26,63)"/>
<path d="M0 0 C1.65 0.99 3.3 1.98 5 3 C4.01 3.495 4.01 3.495 3 4 C2.01 3.67 1.02 3.34 0 3 C0 3.66 0 4.32 0 5 C0.99 5 1.98 5 3 5 C3 6.32 3 7.64 3 9 C0.11562221 7.70700306 -1.87219421 6.34058637 -4 4 C-3.01 4 -2.02 4 -1 4 C-0.67 2.68 -0.34 1.36 0 0 Z " fill="#E69452" transform="translate(61,102)"/>
<path d="M0 0 C7.50769231 -0.36923077 7.50769231 -0.36923077 10 1.5 C10.495 2.2425 10.495 2.2425 11 3 C9.7625 3.12375 8.525 3.2475 7.25 3.375 C4.1237803 3.75746305 1.71120763 4.30549523 -1 6 C-0.67 4.02 -0.34 2.04 0 0 Z " fill="#164D96" transform="translate(33,27)"/>
<path d="M0 0 C1.32 0 2.64 0 4 0 C4 3.3 4 6.6 4 10 C2.68 10 1.36 10 0 10 C0 9.34 0 8.68 0 8 C0.99 8 1.98 8 3 8 C3 6.35 3 4.7 3 3 C2.34 3 1.68 3 1 3 C0.67 4.32 0.34 5.64 0 7 C0 4.69 0 2.38 0 0 Z " fill="#DB9C69" transform="translate(287,107)"/>
<path d="M0 0 C2.54634201 1.11402463 3.51322983 2.57050623 5 4.875 C3.35 4.545 1.7 4.215 0 3.875 C-0.33 4.865 -0.66 5.855 -1 6.875 C-2.32 5.225 -3.64 3.575 -5 1.875 C-2 -0.125 -2 -0.125 0 0 Z " fill="#E49756" transform="translate(48,91.125)"/>
<path d="M0 0 C0.66 0 1.32 0 2 0 C2.19551338 1.60320974 2.38111983 3.20762986 2.5625 4.8125 C2.66691406 5.70582031 2.77132812 6.59914063 2.87890625 7.51953125 C3 10 3 10 2 13 C1.34 13 0.68 13 0 13 C0 8.71 0 4.42 0 0 Z " fill="#1C4B87" transform="translate(192,77)"/>
<path d="M0 0 C0.66 0 1.32 0 2 0 C2 0.66 2 1.32 2 2 C4.31 2.33 6.62 2.66 9 3 C8.67 3.99 8.34 4.98 8 6 C5.36 5.67 2.72 5.34 0 5 C0 3.35 0 1.7 0 0 Z " fill="#154A90" transform="translate(134,52)"/>
<path d="M0 0 C0.928125 0.0825 1.85625 0.165 2.8125 0.25 C2.8125 0.58 2.8125 0.91 2.8125 1.25 C1.1625 1.25 -0.4875 1.25 -2.1875 1.25 C-2.001875 2.054375 -1.81625 2.85875 -1.625 3.6875 C-1.480625 4.533125 -1.33625 5.37875 -1.1875 6.25 C-2.1875 7.25 -2.1875 7.25 -4.75 7.3125 C-5.9565625 7.2815625 -5.9565625 7.2815625 -7.1875 7.25 C-4.8989094 0.38422819 -4.8989094 0.38422819 0 0 Z " fill="#224C85" transform="translate(255.1875,47.75)"/>
<path d="M0 0 C0.66 0 1.32 0 2 0 C1.34 1.65 0.68 3.3 0 5 C-0.66 5 -1.32 5 -2 5 C-2.99 7.97 -3.98 10.94 -5 14 C-6.2095238 9.16190482 -5.43879888 8.18079808 -3 4 C-1.4375 1.625 -1.4375 1.625 0 0 Z " fill="#244B7D" transform="translate(34,20)"/>
<path d="M0 0 C0.53109375 0.31710938 1.0621875 0.63421875 1.609375 0.9609375 C4.54535848 2.2370349 7.06174329 2.41707021 10.25 2.625 C11.32765625 2.69976563 12.4053125 2.77453125 13.515625 2.8515625 C14.33546875 2.90054687 15.1553125 2.94953125 16 3 C16 3.33 16 3.66 16 4 C15.04738281 4.06058594 14.09476563 4.12117188 13.11328125 4.18359375 C11.85902344 4.26738281 10.60476562 4.35117187 9.3125 4.4375 C8.07113281 4.51871094 6.82976563 4.59992187 5.55078125 4.68359375 C2.61819663 4.94491317 -0.13441617 5.34798379 -3 6 C-2.67 5.34 -2.34 4.68 -2 4 C-1.34 4 -0.68 4 0 4 C0 2.68 0 1.36 0 0 Z " fill="#174278" transform="translate(44,17)"/>
<path d="M0 0 C0.99 0 1.98 0 3 0 C3 3.3 3 6.6 3 10 C1.68 10 0.36 10 -1 10 C-0.9278125 9.36191406 -0.855625 8.72382812 -0.78125 8.06640625 C-0.6884375 7.24011719 -0.595625 6.41382812 -0.5 5.5625 C-0.4071875 4.73878906 -0.314375 3.91507812 -0.21875 3.06640625 C-0.05543721 1.5360501 -0.05543721 1.5360501 0 0 Z " fill="#E99A58" transform="translate(130,107)"/>
<path d="M0 0 C0.598125 0.350625 1.19625 0.70125 1.8125 1.0625 C1.4825 2.3825 1.1525 3.7025 0.8125 5.0625 C-0.5075 4.4025 -1.8275 3.7425 -3.1875 3.0625 C-3.5175 3.7225 -3.8475 4.3825 -4.1875 5.0625 C-4.8475 4.7325 -5.5075 4.4025 -6.1875 4.0625 C-5.875 2.125 -5.875 2.125 -5.1875 0.0625 C-2.1875 -0.9375 -2.1875 -0.9375 0 0 Z " fill="#16427E" transform="translate(340.1875,79.9375)"/>
<path d="M0 0 C0.99 1.32 1.98 2.64 3 4 C2.01 4.66 1.02 5.32 0 6 C-5.875 3.25 -5.875 3.25 -7 1 C-5.5459375 1.0309375 -5.5459375 1.0309375 -4.0625 1.0625 C-1.12534105 1.35618499 -1.12534105 1.35618499 0 0 Z " fill="#214574" transform="translate(328,58)"/>
<path d="M0 0 C1.1446875 0.3403125 1.1446875 0.3403125 2.3125 0.6875 C1.9825 2.0075 1.6525 3.3275 1.3125 4.6875 C0.9825 3.6975 0.6525 2.7075 0.3125 1.6875 C-1.7037233 2.40313266 -1.7037233 2.40313266 -3.6875 3.6875 C-4.49278889 5.73750871 -4.49278889 5.73750871 -4.6875 7.6875 C-5.3475 7.6875 -6.0075 7.6875 -6.6875 7.6875 C-6.32553085 5.00892828 -5.94762724 3.07769086 -4.4375 0.8125 C-2.6875 -0.3125 -2.6875 -0.3125 0 0 Z " fill="#234B7C" transform="translate(124.6875,49.3125)"/>
<path d="M0 0 C1.65 1.32 3.3 2.64 5 4 C4.67 4.99 4.34 5.98 4 7 C3.67 6.01 3.34 5.02 3 4 C2.01 4 1.02 4 0 4 C0.33 5.98 0.66 7.96 1 10 C0.34 9.67 -0.32 9.34 -1 9 C-1.75 6.125 -1.75 6.125 -2 3 C-1.34 2.01 -0.68 1.02 0 0 Z " fill="#214678" transform="translate(356,41)"/>
<path d="M0 0 C1.2065625 0.0309375 1.2065625 0.0309375 2.4375 0.0625 C2.7675 1.7125 3.0975 3.3625 3.4375 5.0625 C3.1075 4.0725 2.7775 3.0825 2.4375 2.0625 C1.1175 2.0625 -0.2025 2.0625 -1.5625 2.0625 C-1.5625 4.0425 -1.5625 6.0225 -1.5625 8.0625 C-2.2225 8.0625 -2.8825 8.0625 -3.5625 8.0625 C-3.60491723 5.72955225 -3.60342937 3.39547433 -3.5625 1.0625 C-2.5625 0.0625 -2.5625 0.0625 0 0 Z " fill="#F79745" transform="translate(167.5625,107.9375)"/>
<path d="M0 0 C1.33332095 2.6666419 0.67102033 4.16680303 0 7 C0.66 7 1.32 7 2 7 C2 7.99 2 8.98 2 10 C-0.475 9.01 -0.475 9.01 -3 8 C-2.25 2.25 -2.25 2.25 0 0 Z " fill="#1B4B86" transform="translate(259,81)"/>
<path d="M0 0 C-0.33 0.99 -0.66 1.98 -1 3 C-1.66 2.67 -2.32 2.34 -3 2 C-5.3400417 2.28241883 -7.67504723 2.61250787 -10 3 C-9.1875 1.0625 -9.1875 1.0625 -8 -1 C-4.37673261 -2.2077558 -3.35853631 -1.54311128 0 0 Z " fill="#15447E" transform="translate(206,81)"/>
<path d="M0 0 C3.79620155 1.26540052 4.48678188 2.78218431 6.6875 6.0625 C7.31011719 6.98160156 7.93273438 7.90070313 8.57421875 8.84765625 C9.04472656 9.55792969 9.51523437 10.26820312 10 11 C9.67 11.66 9.34 12.32 9 13 C7.4941255 11.21326795 5.9954515 9.42046492 4.5 7.625 C3.6646875 6.62726563 2.829375 5.62953125 1.96875 4.6015625 C0 2 0 2 0 0 Z " fill="#545858" transform="translate(36,72)"/>
<path d="M0 0 C0.33 0.99 0.66 1.98 1 3 C1.99 2.67 2.98 2.34 4 2 C3.125 5.875 3.125 5.875 2 7 C0.33382885 7.04063832 -1.33388095 7.042721 -3 7 C-3 6.01 -3 5.02 -3 4 C-2.01 4 -1.02 4 0 4 C0 2.68 0 1.36 0 0 Z " fill="#1F4779" transform="translate(264,88)"/>
<path d="M0 0 C3.96 0 7.92 0 12 0 C12 0.66 12 1.32 12 2 C10.56589632 2.24954005 9.12739928 2.47392642 7.6875 2.6875 C6.88699219 2.81511719 6.08648437 2.94273438 5.26171875 3.07421875 C3 3 3 3 0 0 Z " fill="#124A8F" transform="translate(45,17)"/>
<path d="M0 0 C2.375 0.25 2.375 0.25 5 1 C6.3125 3.0625 6.3125 3.0625 7 5 C3 5 3 5 1.25 3.625 C0 2 0 2 0 0 Z " fill="#E3995C" transform="translate(201,103)"/>
<path d="M0 0 C-0.33 1.65 -0.66 3.3 -1 5 C-2.65 5 -4.3 5 -6 5 C-6 4.01 -6 3.02 -6 2 C-3 0 -3 0 0 0 Z " fill="#2B5387" transform="translate(363,90)"/>
<path d="M0 0 C1.32 0 2.64 0 4 0 C4.33 1.98 4.66 3.96 5 6 C4.34 6 3.68 6 3 6 C2.67 6.66 2.34 7.32 2 8 C1.34 5.36 0.68 2.72 0 0 Z " fill="#19487D" transform="translate(356,80)"/>
<path d="M0 0 C6.48292295 -0.3669579 6.48292295 -0.3669579 8.9375 1.375 C10 3 10 3 10 5 C8.68 5.33 7.36 5.66 6 6 C5.67 4.68 5.34 3.36 5 2 C3.35 1.67 1.7 1.34 0 1 C0 0.67 0 0.34 0 0 Z " fill="#1C4375" transform="translate(281,76)"/>
<path d="M0 0 C2.86453858 3.41016497 4.34703566 6.90694544 6 11 C5.01 10.67 4.02 10.34 3 10 C2.67 9.01 2.34 8.02 2 7 C1.34 6.67 0.68 6.34 0 6 C-0.33 6.66 -0.66 7.32 -1 8 C-0.67 5.36 -0.34 2.72 0 0 Z " fill="#CF7B4C" transform="translate(26,57)"/>
<path d="M0 0 C0.99 0.99 1.98 1.98 3 3 C2.34 4.65 1.68 6.3 1 8 C-0.37562854 6.71034824 -1.70766393 5.37310707 -3 4 C-3 3.34 -3 2.68 -3 2 C-2.01 2 -1.02 2 0 2 C0 1.34 0 0.68 0 0 Z " fill="#F79436" transform="translate(90,55)"/>
<path d="M0 0 C2.52259061 1.97420135 2.9929808 2.96745642 3.6875 6.1875 C3.790625 7.115625 3.89375 8.04375 4 9 C3.34 9 2.68 9 2 9 C0.39446555 7.07335866 -0.87816502 5.24366996 -2 3 C-1.34 2.01 -0.68 1.02 0 0 Z " fill="#214372" transform="translate(144,46)"/>
<path d="M0 0 C0.33 1.65 0.66 3.3 1 5 C0.34 4.67 -0.32 4.34 -1 4 C-1 3.34 -1 2.68 -1 2 C-3.86724686 2.57344937 -4.8614515 2.8614515 -7 5 C-7.99 4.34 -8.98 3.68 -10 3 C-6.68152292 -0.06320961 -4.44849969 -0.3033068 0 0 Z " fill="#F69238" transform="translate(217,109)"/>
<path d="M0 0 C3.32368224 1.10789408 3.61563093 1.48436217 5.25 4.375 C5.60578125 4.98085937 5.9615625 5.58671875 6.328125 6.2109375 C7 8 7 8 6 11 C3.13546142 7.58983503 1.65296434 4.09305456 0 0 Z " fill="#D6A078" transform="translate(96,62)"/>
<path d="M0 0 C2.31 0 4.62 0 7 0 C7 0.66 7 1.32 7 2 C7.66 2.66 8.32 3.32 9 4 C2.25 4.125 2.25 4.125 0 3 C0 2.01 0 1.02 0 0 Z " fill="#224D79" transform="translate(236,59)"/>
<path d="M0 0 C0.33 0.66 0.66 1.32 1 2 C0.67 2.66 0.34 3.32 0 4 C0.99 4.33 1.98 4.66 3 5 C0 6 0 6 -3.125 4.6875 C-6 3 -6 3 -7 1 C-5.5459375 1.0309375 -5.5459375 1.0309375 -4.0625 1.0625 C-1.12534105 1.35618499 -1.12534105 1.35618499 0 0 Z " fill="#264675" transform="translate(152,58)"/>
<path d="M0 0 C0.66 0 1.32 0 2 0 C2 0.99 2 1.98 2 3 C1.01 3 0.02 3 -1 3 C-0.67 3.99 -0.34 4.98 0 6 C1.65 6.33 3.3 6.66 5 7 C5 7.33 5 7.66 5 8 C2.69 8 0.38 8 -2 8 C-2.6875 6.25 -2.6875 6.25 -3 4 C-1.6875 1.75 -1.6875 1.75 0 0 Z " fill="#244977" transform="translate(206,49)"/>
<path d="M0 0 C1.32 0 2.64 0 4 0 C4 1.65 4 3.3 4 5 C2.35 5 0.7 5 -1 5 C-0.67 3.35 -0.34 1.7 0 0 Z " fill="#F48F38" transform="translate(152,109)"/>
<path d="M0 0 C2.475 0.99 2.475 0.99 5 2 C4.67 2.66 4.34 3.32 4 4 C3.34 4 2.68 4 2 4 C2 5.65 2 7.3 2 9 C1.34 9 0.68 9 0 9 C0 6.03 0 3.06 0 0 Z " fill="#F39344" transform="translate(174,106)"/>
<path d="M0 0 C1.32 0 2.64 0 4 0 C3.01 3.3 2.02 6.6 1 10 C0.67 10 0.34 10 0 10 C0 6.7 0 3.4 0 0 Z " fill="#E69B56" transform="translate(189,107)"/>
<path d="M0 0 C0.66 0.33 1.32 0.66 2 1 C1.7452486 2.31571603 1.47065859 3.62760376 1.1875 4.9375 C1.03667969 5.66839844 0.88585937 6.39929687 0.73046875 7.15234375 C0.48941406 7.76207031 0.24835937 8.37179688 0 9 C-0.99 9.33 -1.98 9.66 -3 10 C-2.25 3.375 -2.25 3.375 0 0 Z " fill="#B8956B" transform="translate(24,29)"/>
<path d="M0 0 C1 3 1 3 0.0625 5.1875 C-0.4634375 6.0846875 -0.4634375 6.0846875 -1 7 C-1.99 7 -2.98 7 -4 7 C-3.6875 4.625 -3.6875 4.625 -3 2 C-2.01 1.34 -1.02 0.68 0 0 Z " fill="#F0984A" transform="translate(231,109)"/>
<path d="M0 0 C0.99 0 1.98 0 3 0 C3 2.64 3 5.28 3 8 C2.01 8 1.02 8 0 8 C0 5.36 0 2.72 0 0 Z " fill="#164D90" transform="translate(311,82)"/>
<path d="M0 0 C2.0625 0.4375 2.0625 0.4375 4 1 C4 1.99 4 2.98 4 4 C2.68 4.33 1.36 4.66 0 5 C-0.5625 3.0625 -0.5625 3.0625 -1 1 C-0.67 0.67 -0.34 0.34 0 0 Z " fill="#244979" transform="translate(140,59)"/>
<path d="M0 0 C1.134375 0.020625 2.26875 0.04125 3.4375 0.0625 C2.7775 0.7225 2.1175 1.3825 1.4375 2.0625 C1.7675 2.7225 2.0975 3.3825 2.4375 4.0625 C0.7875 4.3925 -0.8625 4.7225 -2.5625 5.0625 C-3.2225 3.7425 -3.8825 2.4225 -4.5625 1.0625 C-3.5625 0.0625 -3.5625 0.0625 0 0 Z " fill="#1E3E6E" transform="translate(206.5625,40.9375)"/>
<path d="M0 0 C1.32 0.33 2.64 0.66 4 1 C3.67 2.65 3.34 4.3 3 6 C2.01 6 1.02 6 0 6 C0 4.02 0 2.04 0 0 Z " fill="#EC9143" transform="translate(140,109)"/>
<path d="M0 0 C1.5 1.375 1.5 1.375 3 3 C3 3.66 3 4.32 3 5 C-0.3 5 -3.6 5 -7 5 C-7 4.34 -7 3.68 -7 3 C-6.34 3 -5.68 3 -5 3 C-4.67 2.34 -4.34 1.68 -4 1 C-4 1.66 -4 2.32 -4 3 C-2.68 3 -1.36 3 0 3 C0 2.01 0 1.02 0 0 Z " fill="#194C95" transform="translate(203,81)"/>
<path d="M0 0 C0 1.32 0 2.64 0 4 C-2.31 4 -4.62 4 -7 4 C-6.67 3.01 -6.34 2.02 -6 1 C-3.90006779 0.25486277 -2.22568901 0 0 0 Z " fill="#144C92" transform="translate(235,53)"/>
<path d="M0 0 C1.32 0 2.64 0 4 0 C3.67 1.32 3.34 2.64 3 4 C1.68 4.33 0.36 4.66 -1 5 C-0.67 3.35 -0.34 1.7 0 0 Z " fill="#165492" transform="translate(244,49)"/>
<path d="M0 0 C0.66 0 1.32 0 2 0 C2 1.65 2 3.3 2 5 C1.34 5 0.68 5 0 5 C0 5.99 0 6.98 0 8 C-0.66 8 -1.32 8 -2 8 C-2.20086443 4.28400809 -2.1519437 3.22791555 0 0 Z " fill="#224976" transform="translate(185,41)"/>
<path d="M0 0 C1.65 0 3.3 0 5 0 C4.34 2.31 3.68 4.62 3 7 C2.34 7 1.68 7 1 7 C0.67 4.69 0.34 2.38 0 0 Z " fill="#E2985B" transform="translate(148,107)"/>
<path d="M0 0 C1.5625 1.6875 1.5625 1.6875 3 4 C2.6875 6.75 2.6875 6.75 2 9 C1.01 9 0.02 9 -1 9 C-0.835 8.443125 -0.67 7.88625 -0.5 7.3125 C0.04041351 4.81308751 0.07082065 2.54954338 0 0 Z " fill="#E59B5B" transform="translate(92,53)"/>
<path d="M0 0 C0.99 0 1.98 0 3 0 C4 3 4 3 3.0625 5.1875 C2.5365625 6.0846875 2.5365625 6.0846875 2 7 C1.34 7 0.68 7 0 7 C-0.93423645 3.98968256 -1.04449911 3.13349732 0 0 Z " fill="#325784" transform="translate(287,51)"/>
<path d="M0 0 C0.66 0 1.32 0 2 0 C2 2.31 2 4.62 2 7 C0.68 7 -0.64 7 -2 7 C-1.42415568 4.61435923 -0.77772405 2.33317216 0 0 Z " fill="#E59B58" transform="translate(136,110)"/>
<path d="M0 0 C1.2065625 0.0309375 1.2065625 0.0309375 2.4375 0.0625 C2.7675 1.0525 3.0975 2.0425 3.4375 3.0625 C1.625 3.75 1.625 3.75 -0.5625 4.0625 C-2.3125 2.625 -2.3125 2.625 -3.5625 1.0625 C-2.5625 0.0625 -2.5625 0.0625 0 0 Z " fill="#F2903D" transform="translate(68.5625,107.9375)"/>
<path d="M0 0 C3 3 3 3 3.1875 6.1875 C3.0946875 7.5796875 3.0946875 7.5796875 3 9 C2.01 9.33 1.02 9.66 0 10 C0 6.7 0 3.4 0 0 Z " fill="#254A80" transform="translate(318,80)"/>
<path d="M0 0 C1.65 0 3.3 0 5 0 C5.33 1.32 5.66 2.64 6 4 C4.35 3.67 2.7 3.34 1 3 C0.67 2.01 0.34 1.02 0 0 Z " fill="#1B488D" transform="translate(124,77)"/>
<path d="M0 0 C0.99 0 1.98 0 3 0 C3.99 2.31 4.98 4.62 6 7 C4.125 6.875 4.125 6.875 2 6 C0.75 2.9375 0.75 2.9375 0 0 Z " fill="#3F596F" transform="translate(32,65)"/>
<path d="M0 0 C0.99 0.33 1.98 0.66 3 1 C3 2.65 3 4.3 3 6 C2.01 6 1.02 6 0 6 C-1 3 -1 3 0 0 Z " fill="#ED944E" transform="translate(278,107)"/>
<path d="M0 0 C0.99 0 1.98 0 3 0 C3.33 1.32 3.66 2.64 4 4 C3.34 4 2.68 4 2 4 C1.67 4.66 1.34 5.32 1 6 C0.01 4.68 -0.98 3.36 -2 2 C-1.34 1.34 -0.68 0.68 0 0 Z " fill="#1A50A1" transform="translate(122,51)"/>
<path d="M0 0 C0.66 0 1.32 0 2 0 C3.4606285 2.64738916 4 3.89448334 4 7 C3.34 7 2.68 7 2 7 C2 5.68 2 4.36 2 3 C0.68 3.33 -0.64 3.66 -2 4 C-1.34 2.68 -0.68 1.36 0 0 Z " fill="#224776" transform="translate(223,47)"/>
<path d="M0 0 C0.33 0.66 0.66 1.32 1 2 C1.99 2.33 2.98 2.66 4 3 C3.01 3.99 2.02 4.98 1 6 C0.01 5.67 -0.98 5.34 -2 5 C-1.34 3.35 -0.68 1.7 0 0 Z " fill="#104680" transform="translate(35,22)"/>
<path d="M0 0 C2.31 0 4.62 0 7 0 C6.67 0.99 6.34 1.98 6 3 C4.02 3.33 2.04 3.66 0 4 C0.66 3.67 1.32 3.34 2 3 C2 2.34 2 1.68 2 1 C1.34 0.67 0.68 0.34 0 0 Z " fill="#1A3D6C" transform="translate(123,88)"/>
<path d="M0 0 C2.475 0.99 2.475 0.99 5 2 C5 1.34 5 0.68 5 0 C6.32 0.66 7.64 1.32 9 2 C7.3125 3.1875 7.3125 3.1875 5 4 C2.25 2.6875 2.25 2.6875 0 1 C0 0.67 0 0.34 0 0 Z " fill="#154573" transform="translate(333,88)"/>
<path d="M0 0 C-3 2 -3 2 -6 2 C-6 1.34 -6 0.68 -6 0 C-6.66 -0.33 -7.32 -0.66 -8 -1 C-4.37673261 -2.2077558 -3.35853631 -1.54311128 0 0 Z " fill="#143B75" transform="translate(217,81)"/>
<path d="M0 0 C0.66 0.33 1.32 0.66 2 1 C2 1.66 2 2.32 2 3 C2.99 3.33 3.98 3.66 5 4 C2.13822943 5.43088528 0.06624227 4.59991697 -3 4 C-3 3.34 -3 2.68 -3 2 C-2.01 2 -1.02 2 0 2 C0 1.34 0 0.68 0 0 Z " fill="#1C4B85" transform="translate(263,51)"/>
<path d="M0 0 C0.99 0 1.98 0 3 0 C2.67 2.64 2.34 5.28 2 8 C0 6 0 6 -0.125 2.875 C-0.08375 1.92625 -0.0425 0.9775 0 0 Z " fill="#174B91" transform="translate(356,45)"/>
<path d="M0 0 C1.32 0 2.64 0 4 0 C4 0.99 4 1.98 4 3 C2.68 3 1.36 3 0 3 C0 2.01 0 1.02 0 0 Z " fill="#DD9967" transform="translate(139,103)"/>
<path d="M0 0 C1.32 0 2.64 0 4 0 C4 0.99 4 1.98 4 3 C2.68 3 1.36 3 0 3 C0 2.01 0 1.02 0 0 Z " fill="#E29E63" transform="translate(233,103)"/>
<path d="M0 0 C1.32 0 2.64 0 4 0 C4 0.99 4 1.98 4 3 C2.68 2.67 1.36 2.34 0 2 C0 1.34 0 0.68 0 0 Z " fill="#E09D67" transform="translate(129,103)"/>
<path d="" fill="#FFFFFF" transform="translate(0,0)"/>
<path d="" fill="#FFFFFF" transform="translate(0,0)"/>
<path d="" fill="#FFFFFF" transform="translate(0,0)"/>
<path d="" fill="#FFFFFF" transform="translate(0,0)"/>
<path d="" fill="#FFFFFF" transform="translate(0,0)"/>
<path d="" fill="#FFFFFF" transform="translate(0,0)"/>
<path d="" fill="#FFFFFF" transform="translate(0,0)"/>
<path d="" fill="#FFFFFF" transform="translate(0,0)"/>
<path d="" fill="#FFFFFF" transform="translate(0,0)"/>
<path d="" fill="#FFFFFF" transform="translate(0,0)"/>
<path d="" fill="#FFFFFF" transform="translate(0,0)"/>
<path d="" fill="#FFFFFF" transform="translate(0,0)"/>
<path d="" fill="#FFFFFF" transform="translate(0,0)"/>
<path d="" fill="#FFFFFF" transform="translate(0,0)"/>
<path d="" fill="#FFFFFF" transform="translate(0,0)"/>
<path d="" fill="#FFFFFF" transform="translate(0,0)"/>
<path d="" fill="#FFFFFF" transform="translate(0,0)"/>
<path d="" fill="#FFFFFF" transform="translate(0,0)"/>
<path d="" fill="#FFFFFF" transform="translate(0,0)"/>
<path d="" fill="#FFFFFF" transform="translate(0,0)"/>
<path d="" fill="#FFFFFF" transform="translate(0,0)"/>
<path d="" fill="#FFFFFF" transform="translate(0,0)"/>
<path d="" fill="#FFFFFF" transform="translate(0,0)"/>
<path d="" fill="#FFFFFF" transform="translate(0,0)"/>
<path d="" fill="#FFFFFF" transform="translate(0,0)"/>
<path d="" fill="#FFFFFF" transform="translate(0,0)"/>
<path d="" fill="#FFFFFF" transform="translate(0,0)"/>
<path d="" fill="#FFFFFF" transform="translate(0,0)"/>
<path d="" fill="#FFFFFF" transform="translate(0,0)"/>
<path d="" fill="#FFFFFF" transform="translate(0,0)"/>
<path d="" fill="#FFFFFF" transform="translate(0,0)"/>
<path d="" fill="#FFFFFF" transform="translate(0,0)"/>
<path d="" fill="#FFFFFF" transform="translate(0,0)"/>
<path d="" fill="#FFFFFF" transform="translate(0,0)"/>
<path d="" fill="#FFFFFF" transform="translate(0,0)"/>
<path d="" fill="#FFFFFF" transform="translate(0,0)"/>
<path d="" fill="#FFFFFF" transform="translate(0,0)"/>
<path d="" fill="#FFFFFF" transform="translate(0,0)"/>
<path d="" fill="#FFFFFF" transform="translate(0,0)"/>
<path d="" fill="#FFFFFF" transform="translate(0,0)"/>
<path d="" fill="#FFFFFF" transform="translate(0,0)"/>
<path d="" fill="#FFFFFF" transform="translate(0,0)"/>
<path d="" fill="#FFFFFF" transform="translate(0,0)"/>
<path d="" fill="#FFFFFF" transform="translate(0,0)"/>
<path d="" fill="#FFFFFF" transform="translate(0,0)"/>
<path d="" fill="#FFFFFF" transform="translate(0,0)"/>
<path d="" fill="#FFFFFF" transform="translate(0,0)"/>
<path d="" fill="#FFFFFF" transform="translate(0,0)"/>
<path d="" fill="#FFFFFF" transform="translate(0,0)"/>
<path d="" fill="#FFFFFF" transform="translate(0,0)"/>
<path d="" fill="#FFFFFF" transform="translate(0,0)"/>
<path d="" fill="#FFFFFF" transform="translate(0,0)"/>
<path d="" fill="#FFFFFF" transform="translate(0,0)"/>
<path d="" fill="#FFFFFF" transform="translate(0,0)"/>
<path d="" fill="#FFFFFF" transform="translate(0,0)"/>
<path d="" fill="#FFFFFF" transform="translate(0,0)"/>
<path d="" fill="#FFFFFF" transform="translate(0,0)"/>
<path d="" fill="#FFFFFF" transform="translate(0,0)"/>
<path d="" fill="#FFFFFF" transform="translate(0,0)"/>
<path d="" fill="#FFFFFF" transform="translate(0,0)"/>
<path d="" fill="#FFFFFF" transform="translate(0,0)"/>
<path d="" fill="#FFFFFF" transform="translate(0,0)"/>
<path d="" fill="#FFFFFF" transform="translate(0,0)"/>
<path d="" fill="#FFFFFF" transform="translate(0,0)"/>
<path d="" fill="#FFFFFF" transform="translate(0,0)"/>
<path d="" fill="#FFFFFF" transform="translate(0,0)"/>
<path d="" fill="#FFFFFF" transform="translate(0,0)"/>
<path d="" fill="#FFFFFF" transform="translate(0,0)"/>
<path d="" fill="#FFFFFF" transform="translate(0,0)"/>
<path d="" fill="#FFFFFF" transform="translate(0,0)"/>
<path d="" fill="#FFFFFF" transform="translate(0,0)"/>
<path d="" fill="#FFFFFF" transform="translate(0,0)"/>
<path d="" fill="#FFFFFF" transform="translate(0,0)"/>
<path d="" fill="#FFFFFF" transform="translate(0,0)"/>
<path d="" fill="#FFFFFF" transform="translate(0,0)"/>
<path d="" fill="#FFFFFF" transform="translate(0,0)"/>
</svg>
